# xmcd
#
# Track frame offsets: 
#        182
#        14563
#        27426
#        36955
#        46762
#        63111
#        75451
#        87822
#        100694
#        112654
#        128812
#        141226
#        151974
#        168016
#        180366
#        193775
#        211423
#        224864
#        238429
#        260224
#        276228
#
# Disc length: 3887 seconds
#
# Revision: 1
# Processed by: cddbd v1.5.1PL0 Copyright (c) Steve Scherf et al.
# Submitted via: ExactAudioCopy v0.95a5
#
DISCID=270f2d15
DTITLE=Merle Haggard - 21 Years Of #1 Hits 1967-1987
DYEAR=2002
DGENRE=Country
TTITLE0=I'm A Lonesome Fugitive
TTITLE1=Sing Me Back Home
TTITLE2=The Legend Of Bonnie and Clyde
TTITLE3=Mama Tried
TTITLE4=Hungry Eyes
TTITLE5=Workin' Man Blues
TTITLE6=Okie From Muskogee
TTITLE7=The Fightin' Side Of Me
TTITLE8=Carolyn
TTITLE9=It's Not Love [But It's Not Bad]
TTITLE10=If We Make It Through December
TTITLE11=Old Man From The Mountain
TTITLE12=It's All In The Movies
TTITLE13=The Roots Of My Raising
TTITLE14=Cherokee Maiden
TTITLE15=I Think I'll Just Stay Here and Drink
TTITLE16=My Favorite Memory
TTITLE17=Big City
TTITLE18=Going Where The Lonely Go
TTITLE19=Some Day When Things Are Good
TTITLE20=Twinkle, Twinkle Lucky Star
EXTD=
EXTT0=
EXTT1=
EXTT2=
EXTT3=
EXTT4=
EXTT5=
EXTT6=
EXTT7=
EXTT8=
EXTT9=
EXTT10=
EXTT11=
EXTT12=
EXTT13=
EXTT14=
EXTT15=
EXTT16=
EXTT17=
EXTT18=
EXTT19=
EXTT20=
PLAYORDER=
